<svg width="24" height="24" viewBox="0 0 24 24" fill="none" xmlns="http://www.w3.org/2000/svg">
<g clip-path="url(#clip0_227_22)">
<path d="M22 2.66675H2C0.895833 2.66675 0 3.56258 0 4.66675V5.33341H24V4.66675C24 3.56258 23.1042 2.66675 22 2.66675ZM0 19.3334C0 20.4376 0.895833 21.3334 2 21.3334H22C23.1042 21.3334 24 20.4376 24 19.3334V6.66675H0V19.3334ZM14.6667 9.66675C14.6667 9.48341 14.8167 9.33341 15 9.33341H21C21.1833 9.33341 21.3333 9.48341 21.3333 9.66675V10.3334C21.3333 10.5167 21.1833 10.6667 21 10.6667H15C14.8167 10.6667 14.6667 10.5167 14.6667 10.3334V9.66675ZM14.6667 12.3334C14.6667 12.1501 14.8167 12.0001 15 12.0001H21C21.1833 12.0001 21.3333 12.1501 21.3333 12.3334V13.0001C21.3333 13.1834 21.1833 13.3334 21 13.3334H15C14.8167 13.3334 14.6667 13.1834 14.6667 13.0001V12.3334ZM14.6667 15.0001C14.6667 14.8167 14.8167 14.6667 15 14.6667H21C21.1833 14.6667 21.3333 14.8167 21.3333 15.0001V15.6667C21.3333 15.8501 21.1833 16.0001 21 16.0001H15C14.8167 16.0001 14.6667 15.8501 14.6667 15.6667V15.0001ZM7.33333 9.33341C8.80417 9.33341 10 10.5292 10 12.0001C10 13.4709 8.80417 14.6667 7.33333 14.6667C5.8625 14.6667 4.66667 13.4709 4.66667 12.0001C4.66667 10.5292 5.8625 9.33341 7.33333 9.33341ZM2.79583 17.8417C3.14583 16.7709 4.15 16.0001 5.33333 16.0001H5.675C6.1875 16.2126 6.74583 16.3334 7.33333 16.3334C7.92083 16.3334 8.48333 16.2126 8.99167 16.0001H9.33333C10.5167 16.0001 11.5208 16.7709 11.8708 17.8417C12.0042 18.2542 11.6542 18.6667 11.2208 18.6667H3.44583C3.0125 18.6667 2.6625 18.2501 2.79583 17.8417Z" fill="#6C757D"/>
</g>
<defs>
<clipPath id="clip0_227_22">
<rect width="24" height="24" fill="white"/>
</clipPath>
</defs>
</svg>
