<svg width="24" height="24" viewBox="0 0 24 24" fill="none" xmlns="http://www.w3.org/2000/svg">
<g clip-path="url(#clip0_227_24)">
<path d="M19.9225 14.9635V21.7218H0.478516V2.27783H19.9225V14.9635Z" fill="#6C757D" fill-opacity="0.4"/>
<path d="M10.0066 18.0658C9.65216 18.0658 9.29779 17.9306 9.02737 17.6602L4.31871 12.9515C3.77788 12.4107 3.77788 11.5338 4.31871 10.993C4.85959 10.4522 5.73639 10.4522 6.27727 10.993L10.0066 14.7223L21.1591 3.56993C21.7 3.0291 22.5768 3.0291 23.1176 3.56993C23.6585 4.11076 23.6585 4.98766 23.1176 5.52849L10.9859 17.6602C10.7155 17.9306 10.3611 18.0658 10.0066 18.0658Z" fill="white"/>
<path d="M19.9221 14.4855C19.658 14.4855 19.4439 14.6995 19.4439 14.9636V21.2438H0.95621V2.75601H19.9221C20.1861 2.75601 20.4002 2.54197 20.4002 2.27791C20.4002 2.01385 20.1861 1.7998 19.9221 1.7998H0.478105C0.214095 1.7998 0 2.01385 0 2.27791V21.7219C0 21.9859 0.214095 22.2 0.478105 22.2H19.9221C20.1861 22.2 20.4002 21.9859 20.4002 21.7219V14.9636C20.4002 14.6995 20.1861 14.4855 19.9221 14.4855Z" fill="#6C757D"/>
<path d="M19.9224 10.9954C19.6584 10.9954 19.4443 11.2094 19.4443 11.4735V12.7476C19.4443 13.0117 19.6584 13.2257 19.9224 13.2257C20.1865 13.2257 20.4005 13.0117 20.4005 12.7476V11.4735C20.4005 11.2094 20.1865 10.9954 19.9224 10.9954Z" fill="#6C757D"/>
<path d="M23.4553 3.23169C22.7289 2.50545 21.5471 2.50545 20.8207 3.23169L10.0063 14.0461L6.61494 10.6547C5.88865 9.92846 4.70668 9.92841 3.9803 10.6547C3.25396 11.3811 3.25396 12.5631 3.9803 13.2894L8.68896 17.9981C9.0408 18.3499 9.50867 18.5437 10.0063 18.5437C10.5039 18.5437 10.9717 18.3499 11.3237 17.9981L23.4554 5.86634C24.1817 5.14005 24.1817 3.95813 23.4553 3.23169ZM22.7792 5.1903L10.6475 17.322C10.4762 17.4932 10.2485 17.5876 10.0063 17.5876C9.76408 17.5876 9.53636 17.4932 9.3651 17.322L4.65648 12.6133C4.30292 12.2597 4.30292 11.6844 4.65644 11.3309C4.83324 11.1541 5.06545 11.0657 5.29767 11.0657C5.52984 11.0657 5.7621 11.1541 5.93886 11.3308L9.66822 15.0602C9.75791 15.1499 9.87949 15.2003 10.0063 15.2003C10.1331 15.2003 10.2547 15.1499 10.3444 15.0602L21.4968 3.90792C21.8504 3.55441 22.4256 3.55437 22.7792 3.90792C23.1327 4.26143 23.1327 4.83674 22.7792 5.1903Z" fill="#6C757D"/>
</g>
<defs>
<clipPath id="clip0_227_24">
<rect width="24" height="24" fill="white"/>
</clipPath>
</defs>
</svg>
